<svg width="1em" height="1em" viewBox="0 0 21 24" fill="none" xmlns="http://www.w3.org/2000/svg">
  <path
    d="M0 10.125C0 7.01719 2.51719 4.5 5.625 4.5H6C6.82969 4.5 7.5 5.17031 7.5 6C7.5 6.82969 6.82969 7.5 6 7.5H5.625C4.17656 7.5 3 8.67656 3 10.125V10.5H6C7.65469 10.5 9 11.8453 9 13.5V16.5C9 18.1547 7.65469 19.5 6 19.5H3C1.34531 19.5 0 18.1547 0 16.5V15V13.5V10.125ZM12 10.125C12 7.01719 14.5172 4.5 17.625 4.5H18C18.8297 4.5 19.5 5.17031 19.5 6C19.5 6.82969 18.8297 7.5 18 7.5H17.625C16.1766 7.5 15 8.67656 15 10.125V10.5H18C19.6547 10.5 21 11.8453 21 13.5V16.5C21 18.1547 19.6547 19.5 18 19.5H15C13.3453 19.5 12 18.1547 12 16.5V15V13.5V10.125Z"
    fill="currentColor" />
</svg>