<svg width="405" height="157" viewBox="0 0 405 157" fill="none" xmlns="http://www.w3.org/2000/svg">
<path d="M77.5713 0.128006C80.2111 -0.142743 86.9121 0.0381997 89.6875 0.466873C98.8706 1.86577 106.655 6.06229 112.611 12.8311C114.913 15.471 117.982 20.0289 119.674 23.3682C120.396 24.7896 121.028 26.0077 121.096 26.0528C121.141 26.1201 121.344 25.9173 121.547 25.6016C123.013 23.5033 126.917 18.9678 129.286 16.5987C138.695 7.16758 148.735 2.06846 161.325 0.331131C164.439 -0.120126 172.9 -0.0529429 176.442 0.443436C185.648 1.6844 192.755 4.43761 199.795 9.40144C201.848 10.8906 207.579 16.2157 207.579 16.6895C207.576 16.8274 206.043 18.4728 204.194 20.3214C202.322 22.1715 200.811 23.8869 200.811 24.0899C200.811 24.3157 201.487 25.2859 202.345 26.2335C203.18 27.2037 204.646 28.9636 205.639 30.1368C206.609 31.3101 207.737 32.5735 208.144 32.9571C208.55 33.3184 210.151 35.1006 211.686 36.9053C215.183 41.0344 220.756 47.6457 223.08 50.421C224.049 51.5931 224.974 52.5851 225.133 52.6544C225.268 52.6995 226.239 51.9324 227.254 50.9171C232.105 46.224 237.543 42.7719 242.98 40.9669C250.404 38.4849 259.858 38.1462 265.814 40.1768C272.538 42.4783 276.734 47.5103 278.652 55.6329C279.126 57.7086 279.758 62.1981 279.78 63.6876V64.4327H264.055C242.394 64.4327 236.527 64.7261 228.788 66.1475C223.486 67.1177 217.981 68.9454 213.062 71.337C211.19 72.2621 209.587 73.0059 209.52 73.0059C209.451 73.0065 208.842 73.39 208.188 73.8409C202.525 77.8119 198.554 82.2344 195.824 87.672C192.35 94.5762 191.018 101.075 191.018 110.912C191.04 119.193 191.785 124.27 193.974 130.768C194.966 133.701 196.997 137.92 198.328 139.793C198.576 140.131 198.779 140.491 198.779 140.582C198.779 140.65 199.547 141.666 200.472 142.816C203.337 146.404 207.241 149.856 210.964 152.09C212.475 152.992 213.197 153.376 216.018 154.685C217.123 155.204 217.462 155.474 217.259 155.609C217.077 155.722 208.549 155.813 198.283 155.813H179.624L179.533 110.619C179.488 68.6972 179.443 65.2668 179.082 63.0782C176.848 49.8341 170.598 44.3516 157.715 44.3516C150.788 44.3517 145.08 46.1792 141.38 49.5636C137.544 53.0608 135.401 57.6638 134.069 65.2901C133.731 67.2758 133.685 71.4738 133.572 111.589L133.46 155.699L111.754 155.768L90.0488 155.813L89.959 110.867C89.8913 62.199 89.9363 64.4095 88.6953 59.1749C86.1908 48.6156 79.4663 44.0128 67.2373 44.4415C65.1844 44.5092 62.7933 44.7122 61.9131 44.8927C50.5865 47.1941 45.0359 55.0466 43.998 70.2315C43.8627 72.2866 43.7725 89.5465 43.7725 114.68V155.813H1.42188L1.17285 156.376C1.01491 156.714 0.721927 156.941 0.451172 156.941H0V3.28719H43.7725V4.57332C43.7724 5.29703 43.5694 10.508 43.3213 16.1475C43.0957 21.7883 42.9148 26.4364 42.96 26.4815C43.0056 26.5032 43.5697 25.6013 44.2236 24.4512C52.6847 9.51463 63.5372 1.61721 77.5713 0.128006ZM278.652 137.627C280.209 135.214 280.592 134.762 280.638 135.212C280.705 135.731 280.165 148.118 279.849 153.285C279.781 154.661 279.6 155.676 279.465 155.722C279.329 155.767 274.659 155.79 269.063 155.768L258.91 155.699L261.617 154.233C268.228 150.646 273.598 145.434 278.652 137.627ZM344.942 1.30086L404.667 1.36922V3.51277L404.645 5.65633L374.071 60.5968L343.499 115.537L371.544 115.606L399.59 115.65V155.136L361.526 155.09L323.44 155.023L323.395 111.138L323.327 67.253L330.524 54.0538L337.723 40.8546L328.787 40.7413L319.875 40.628L319.153 38.4854C314.663 25.2184 307.465 15.4031 297.199 8.56648C294.559 6.80667 290.769 4.77609 288.242 3.78328C285.151 2.56488 285.196 2.58722 285.196 1.88777V1.25594L344.942 1.30086ZM279.781 97.3067C279.781 99.7885 279.645 102.112 279.442 103.399C277.976 112.401 271.725 118.29 261.392 120.366C253.359 121.991 245.124 121.246 240.138 118.448C237.317 116.869 235.106 114.07 234.316 111.024C233.865 109.242 233.865 105.182 234.339 103.264C235.67 97.8261 239.664 94.4641 245.892 93.5616C246.593 93.4488 254.512 93.3586 263.49 93.336L279.781 93.3126V97.3067Z" fill="url(#paint0_linear_3006_4)"/>
<defs>
<linearGradient id="paint0_linear_3006_4" x1="405" y1="-2.05635e-05" x2="-1.58947e-05" y2="157" gradientUnits="userSpaceOnUse">
<stop offset="0.298077" stop-color="#9013FE"/>
<stop offset="1" stop-color="#1E90FF"/>
</linearGradient>
</defs>
</svg>
