<svg width="405" height="157" viewBox="0 0 405 157" fill="none" xmlns="http://www.w3.org/2000/svg">
<path d="M77.5715 0.127968C63.5373 1.61712 52.6845 9.51416 44.2234 24.4508C43.5691 25.6016 43.005 26.5041 42.9599 26.4815C42.9148 26.4364 43.0953 21.7884 43.3209 16.1477C43.5691 10.5069 43.7721 5.29489 43.7721 4.57287V3.28678H21.8861H0V80.1137V156.941H0.451259C0.722015 156.941 1.01533 156.715 1.17327 156.376L1.42147 155.812H22.6081H43.7721V114.68C43.7721 89.545 43.8624 72.2843 43.9978 70.2311C45.0357 55.0462 50.5862 47.1943 61.9128 44.8929C62.7927 44.7124 65.1844 44.5093 67.2376 44.4416C79.4668 44.0129 86.1905 48.6158 88.695 59.1752C89.936 64.4099 89.8908 62.1987 89.9585 110.867L90.0488 155.812L111.754 155.767L133.46 155.7L133.573 111.589C133.686 71.4721 133.731 67.2753 134.069 65.2898C135.4 57.6635 137.544 53.0607 141.38 49.5634C145.08 46.179 150.788 44.3514 157.715 44.3514C170.599 44.3514 176.849 49.8342 179.082 63.0786C179.443 65.2672 179.488 68.6968 179.534 110.619L179.624 155.812H198.283C208.549 155.812 217.078 155.722 217.259 155.609C217.462 155.474 217.123 155.203 216.018 154.684C213.197 153.376 212.475 152.992 210.964 152.09C207.241 149.856 203.337 146.404 200.472 142.816C199.547 141.665 198.78 140.65 198.78 140.582C198.78 140.492 198.577 140.131 198.328 139.793C196.997 137.92 194.967 133.701 193.974 130.768C191.785 124.269 191.041 119.193 191.018 110.912C191.018 101.075 192.349 94.5765 195.824 87.6723C198.554 82.2346 202.525 77.8123 208.188 73.8412C208.843 73.3899 209.452 73.0063 209.52 73.0063C209.587 73.0063 211.189 72.2618 213.062 71.3367C217.981 68.945 223.486 67.1174 228.788 66.1472C236.528 64.7257 242.394 64.4324 264.054 64.4324H279.781V63.6878C279.758 62.1987 279.126 57.7087 278.653 55.6329C276.735 47.5102 272.538 42.4787 265.814 40.1772C259.858 38.1466 250.404 38.485 242.981 40.9669C237.543 42.772 232.105 46.2241 227.254 50.9172C226.239 51.9325 225.269 52.6997 225.133 52.6545C224.975 52.5869 224.05 51.5941 223.08 50.4208C220.756 47.6456 215.183 41.0346 211.686 36.9056C210.151 35.1006 208.549 33.3181 208.143 32.9571C207.737 32.5735 206.609 31.31 205.639 30.1367C204.646 28.9634 203.179 27.2035 202.345 26.2333C201.487 25.2857 200.81 24.3155 200.81 24.0898C200.81 23.8868 202.322 22.172 204.195 20.3218C206.045 18.4717 207.579 16.8246 207.579 16.6892C207.579 16.2154 201.848 10.8905 199.795 9.40135C192.755 4.43749 185.648 1.68481 176.442 0.443849C172.9 -0.0525357 164.439 -0.120225 161.325 0.331035C148.735 2.06838 138.695 7.16761 129.286 16.5989C126.917 18.968 123.013 23.5032 121.547 25.6016C121.344 25.9174 121.141 26.1205 121.095 26.0528C121.028 26.0077 120.396 24.7893 119.674 23.3678C117.982 20.0285 114.913 15.4708 112.612 12.8309C106.655 6.06203 98.8709 1.86532 89.6878 0.466412C86.9125 0.0377161 80.2113 -0.142788 77.5715 0.127968Z" fill="url(#paint0_linear_3002_14)"/>
<path d="M285.196 1.88785C285.196 2.58731 285.151 2.56474 288.242 3.78314C290.769 4.77591 294.559 6.80658 297.199 8.56649C307.465 15.4031 314.663 25.218 319.153 38.485L319.875 40.6285L328.787 40.7413L337.722 40.8541L330.525 54.0534L323.327 67.2528L323.395 111.138L323.44 155.023L361.526 155.09L399.59 155.136V135.393V115.65L371.544 115.605L343.499 115.538L374.071 60.5967L404.644 5.65587L404.667 3.51239V1.36891L344.943 1.30122L285.196 1.25609V1.88785Z" fill="url(#paint1_linear_3002_14)"/>
<path d="M245.891 93.5612C239.664 94.4637 235.67 97.8256 234.339 103.263C233.865 105.181 233.865 109.242 234.316 111.025C235.106 114.071 237.317 116.869 240.138 118.448C245.124 121.246 253.36 121.991 261.392 120.366C271.726 118.29 277.976 112.401 279.442 103.399C279.645 102.113 279.781 99.7886 279.781 97.3066V93.313L263.49 93.3356C254.51 93.3581 246.591 93.4484 245.891 93.5612Z" fill="url(#paint2_linear_3002_14)"/>
<path d="M278.653 137.627C273.599 145.433 268.229 150.645 261.618 154.233L258.91 155.7L269.063 155.767C274.659 155.79 279.33 155.767 279.465 155.722C279.6 155.677 279.781 154.662 279.848 153.285C280.164 148.118 280.706 135.731 280.638 135.212C280.593 134.761 280.209 135.212 278.653 137.627Z" fill="url(#paint3_linear_3002_14)"/>
<defs>
<linearGradient id="paint0_linear_3002_14" x1="281.048" y1="7.00001" x2="-16.0358" y2="78.4214" gradientUnits="userSpaceOnUse">
<stop offset="0.25" stop-color="#9014FE"/>
<stop offset="1" stop-color="#2688FF"/>
</linearGradient>
<linearGradient id="paint1_linear_3002_14" x1="405.208" y1="8.11957" x2="272.471" y2="22.0171" gradientUnits="userSpaceOnUse">
<stop offset="0.25" stop-color="#9014FE"/>
<stop offset="1" stop-color="#2688FF"/>
</linearGradient>
<linearGradient id="paint2_linear_3002_14" x1="279.988" y1="94.5575" x2="230.948" y2="105.413" gradientUnits="userSpaceOnUse">
<stop offset="0.25" stop-color="#9014FE"/>
<stop offset="1" stop-color="#2688FF"/>
</linearGradient>
<linearGradient id="paint3_linear_3002_14" x1="280.742" y1="135.981" x2="256.809" y2="139.367" gradientUnits="userSpaceOnUse">
<stop offset="0.25" stop-color="#9014FE"/>
<stop offset="1" stop-color="#2688FF"/>
</linearGradient>
</defs>
</svg>
