<?xml version="1.0" encoding="utf-8"?>
<svg version="1.1" xmlns="http://www.w3.org/2000/svg" viewBox="0 0 513 342">
<rect fill="#62B5E5" width="513" height="342"/>
<g>
	<path fill="#F3F3F3" d="M307.1,127.1v92c0,61.6,80.5,80.5,80.5,80.5s80.4-19,80.4-80.6v-92l-80.5-23L307.1,127.1z"/>
	<path fill="#D80027" d="M468,132.8V98.3H307.1v34.5h69v69h-69v23l0,0h69V296c6.9,2.5,11.5,3.5,11.5,3.5s4.6-1.1,11.5-3.5v-71.2h69l0,0
		v-23h-69v-69H468z"/>
</g>
<g fill="#FFFFFF">
	<path d="M0,0h256.5v170.6H0V0z"/>
	<path d="M155.9,115l100.6,55.6v-15.8L184.6,115H155.9z"/>
	<path d="M100.2,55.7L0,0v15.8l71.8,39.9H100.2z"/>
</g>
<g fill="#0052B4">
	<path d="M196.9,115l59.6,32.9V115H196.9z M155.9,115l100.6,55.6v-15.8L184.6,115H155.9z M229.3,170.6l-73.5-40.9v40.9
		H229.3z"/>
	<path d="M45.2,115L0,140.1V115H45.2z M100.2,122.1v48.6H12.8L100.2,122.1z"/>
	<path d="M59.1,55.7L0,22.8v32.8C0,55.6,59.1,55.6,59.1,55.7z M100.2,55.7L0,0v15.8l71.8,39.9H100.2z M26.7,0l73.5,40.8
		V0H26.7z"/>
	<path d="M210.9,55.7l45.6-25.1v25.1H210.9z M155.9,48.5V0h87.4L155.9,48.5z"/>
</g>
<g fill="#D80027">
	<path d="M144.3-0.2h-32.1v69.5H0v32.1h112.2v69.5h32.1v-69.5h112.2V69.3H144.3V-0.2z"/>
	<path d="M155.9,115l100.6,55.6v-15.8L184.6,115H155.9z"/>
	<path d="M71.8,115L0,154.9v15.8L100.2,115H71.8z"/>
	<path d="M100.2,55.7L0,0v15.8l71.8,39.9H100.2z"/>
	<path d="M184.1,55.7l72.4-39.9V0L155.9,55.7H184.1z"/>
</g>
</svg>
