<svg width="542" height="552" viewBox="0 0 542 552" fill="none" xmlns="http://www.w3.org/2000/svg">
<g clip-path="url(#clip0_1_2)">
<path fill-rule="evenodd" clip-rule="evenodd" d="M533.1 260.6L410.7 36.5C396.1 9.59999 365.7 -4.60001 335.7 1.29999L87.8 50.6C58.2 56.5 35.7 80.7 32 110.7L0.499989 366.2C-3.20001 396.2 12.8 425.2 40.2 438.1L268.6 545.6C296.3 558.6 329.2 552.2 349.9 529.7L523.2 341.6C543.5 319.5 547.5 286.9 533.1 260.6Z" fill="url(#paint0_linear_1_2)"/>
<path d="M144.905 197.459C130.871 198.948 120.018 206.845 111.557 221.782C110.902 222.932 110.338 223.835 110.293 223.812C110.248 223.767 110.429 219.119 110.654 213.479C110.902 207.838 111.105 202.626 111.105 201.904V200.618H89.2193H67.3333V277.445V354.272H67.7845C68.0553 354.272 68.3486 354.046 68.5065 353.707L68.7547 353.143H89.9413H111.105V312.011C111.105 286.876 111.196 269.615 111.331 267.562C112.369 252.377 117.919 244.525 129.246 242.224C130.126 242.043 132.518 241.84 134.571 241.773C146.8 241.344 153.524 245.947 156.028 256.506C157.269 261.741 157.224 259.53 157.292 308.198L157.382 353.143L179.088 353.098L200.793 353.031L200.906 308.92C201.019 268.803 201.064 264.606 201.402 262.621C202.734 254.994 204.877 250.392 208.713 246.894C212.413 243.51 218.122 241.682 225.048 241.682C237.932 241.682 244.182 247.165 246.415 260.41C246.777 262.598 246.822 266.028 246.867 307.95L246.957 353.143H265.617C275.883 353.143 284.412 353.053 284.592 352.94C284.795 352.805 284.457 352.534 283.351 352.015C280.531 350.707 279.809 350.323 278.297 349.42C274.574 347.187 270.671 343.735 267.805 340.147C266.88 338.996 266.113 337.981 266.113 337.913C266.113 337.823 265.91 337.462 265.662 337.124C264.33 335.251 262.3 331.032 261.307 328.098C259.118 321.6 258.374 316.524 258.351 308.243C258.351 298.406 259.683 291.907 263.157 285.003C265.887 279.566 269.858 275.143 275.522 271.172C276.176 270.721 276.785 270.337 276.853 270.337C276.921 270.337 278.523 269.593 280.395 268.668C285.314 266.276 290.819 264.448 296.122 263.478C303.861 262.057 309.727 261.763 331.388 261.763H347.114V261.019C347.091 259.53 346.46 255.04 345.986 252.964C344.068 244.841 339.871 239.81 333.148 237.508C327.191 235.478 317.737 235.816 310.314 238.298C304.876 240.103 299.438 243.555 294.587 248.248C293.572 249.263 292.602 250.031 292.467 249.985C292.309 249.918 291.383 248.925 290.413 247.752C288.089 244.977 282.516 238.366 279.019 234.237C277.485 232.432 275.883 230.649 275.477 230.288C275.07 229.904 273.942 228.641 272.972 227.468C271.979 226.294 270.513 224.534 269.678 223.564C268.821 222.617 268.144 221.646 268.144 221.421C268.144 221.218 269.655 219.503 271.528 217.653C273.378 215.803 274.913 214.156 274.913 214.02C274.913 213.546 269.182 208.221 267.128 206.732C260.089 201.768 252.981 199.016 243.776 197.775C240.233 197.278 231.772 197.211 228.658 197.662C216.068 199.399 206.028 204.499 196.619 213.93C194.25 216.299 190.347 220.834 188.88 222.932C188.677 223.248 188.474 223.451 188.429 223.384C188.361 223.339 187.729 222.12 187.007 220.699C185.315 217.359 182.246 212.802 179.945 210.162C173.988 203.393 166.204 199.196 157.021 197.797C154.246 197.369 147.545 197.188 144.905 197.459Z" fill="white"/>
<path d="M352.529 199.219C352.529 199.918 352.484 199.896 355.575 201.114C358.102 202.107 361.893 204.138 364.533 205.897C374.799 212.734 381.996 222.549 386.486 235.816L387.208 237.959L396.121 238.072L405.056 238.185L397.858 251.384L390.66 264.584L390.728 308.469L390.773 352.354L428.86 352.421L466.923 352.466V332.724V312.981L438.878 312.936L410.832 312.868L441.405 257.928L471.977 202.987L472 200.843V198.7L412.276 198.632L352.529 198.587V199.219Z" fill="white"/>
<path d="M313.224 290.892C306.997 291.795 303.003 295.157 301.672 300.594C301.198 302.512 301.198 306.573 301.65 308.356C302.439 311.402 304.651 314.2 307.471 315.779C312.457 318.577 320.693 319.321 328.725 317.697C339.059 315.621 345.309 309.732 346.776 300.73C346.979 299.444 347.114 297.12 347.114 294.638V290.644L330.824 290.667C321.843 290.689 313.924 290.779 313.224 290.892Z" fill="white"/>
<path d="M345.986 334.958C340.932 342.764 335.562 347.976 328.951 351.564L326.243 353.031L336.397 353.098C341.992 353.121 346.663 353.098 346.798 353.053C346.933 353.008 347.114 351.993 347.182 350.616C347.498 345.449 348.039 333.062 347.971 332.543C347.926 332.092 347.543 332.543 345.986 334.958Z" fill="white"/>
</g>
<defs>
<linearGradient id="paint0_linear_1_2" x1="428.345" y1="72.3644" x2="55" y2="476" gradientUnits="userSpaceOnUse">
<stop offset="0.24" stop-color="#9013FE"/>
<stop offset="1" stop-color="#1E90FF"/>
</linearGradient>
<clipPath id="clip0_1_2">
<rect width="541.7" height="551.4" fill="white"/>
</clipPath>
</defs>
</svg>
