<svg xmlns="http://www.w3.org/2000/svg" width="1em" height="1em" viewBox="0 0 24 24" fill="none">
  <path
    d="M16.1423 14.4712C15.994 14.4712 15.8491 14.4279 15.7258 14.3467C15.6025 14.2655 15.5064 14.1501 15.4497 14.015C15.3929 13.88 15.378 13.7314 15.4069 13.588C15.4358 13.4446 15.5072 13.3129 15.612 13.2095C15.7168 13.1061 15.8504 13.0357 15.9958 13.0072C16.1412 12.9786 16.2919 12.9932 16.4289 13.0492C16.5659 13.1051 16.6829 13.1998 16.7653 13.3213C16.8477 13.4428 16.8917 13.5857 16.8917 13.7319C16.8915 13.9279 16.8125 14.1157 16.672 14.2543C16.5315 14.3929 16.341 14.4709 16.1423 14.4712ZM7.8577 14.4712C7.70945 14.4712 7.56452 14.4279 7.44123 14.3467C7.31795 14.2655 7.22185 14.1501 7.16509 14.015C7.10833 13.88 7.09345 13.7314 7.12235 13.588C7.15125 13.4446 7.22261 13.3129 7.32742 13.2095C7.43224 13.1061 7.56579 13.0357 7.71119 13.0072C7.85659 12.9786 8.00731 12.9932 8.14429 13.0492C8.28127 13.1051 8.39835 13.1998 8.48074 13.3213C8.56313 13.4428 8.60712 13.5857 8.60715 13.7319C8.60696 13.9279 8.52795 14.1157 8.38745 14.2543C8.24695 14.3929 8.05644 14.4709 7.8577 14.4712ZM16.4111 10.0194L17.909 7.46133C17.9295 7.42638 17.9428 7.38781 17.9482 7.34779C17.9535 7.30778 17.9508 7.26712 17.9403 7.22813C17.9297 7.18914 17.9114 7.15258 17.8865 7.12055C17.8616 7.08851 17.8306 7.06163 17.7951 7.04143C17.7597 7.02123 17.7206 7.00811 17.68 7.00282C17.6394 6.99753 17.5982 7.00017 17.5586 7.01059C17.5191 7.02101 17.482 7.03902 17.4495 7.06357C17.417 7.08812 17.3898 7.11874 17.3693 7.15368L15.8525 9.74408C14.6926 9.2221 13.3899 8.93145 11.9999 8.93145C10.6099 8.93145 9.3073 9.22252 8.1474 9.74408L6.63071 7.15368C6.61025 7.11873 6.58301 7.08809 6.55054 7.06352C6.51807 7.03895 6.48102 7.02093 6.44149 7.01048C6.40196 7.00003 6.36072 6.99736 6.32015 7.00262C6.27957 7.00789 6.24044 7.02098 6.20499 7.04115C6.16955 7.06132 6.13848 7.08818 6.11356 7.12019C6.08864 7.15221 6.07036 7.18875 6.05976 7.22772C6.04917 7.2667 6.04646 7.30736 6.05179 7.34737C6.05713 7.38738 6.07041 7.42596 6.09087 7.46091L7.58891 10.0194C5.0167 11.3989 3.25735 13.9664 3 17H21C20.7424 13.9664 18.9832 11.3989 16.4111 10.0194Z"
    fill="#3DDC84" />
</svg>