<svg xmlns="http://www.w3.org/2000/svg" width="1em" height="1em" viewBox="0 0 24 24" fill="none">
  <path
    d="M19.5 4H4.5C4.22386 4 4 4.22386 4 4.5V19.5C4 19.7761 4.22386 20 4.5 20H19.5C19.7761 20 20 19.7761 20 19.5V4.5C20 4.22386 19.7761 4 19.5 4Z"
    fill="white" fill-opacity="0.5" />
  <path
    d="M19.5 3.5H4.5C3.94772 3.5 3.5 3.94772 3.5 4.5V19.5C3.5 20.0523 3.94772 20.5 4.5 20.5H19.5C20.0523 20.5 20.5 20.0523 20.5 19.5V4.5C20.5 3.94772 20.0523 3.5 19.5 3.5Z"
    fill="white" fill-opacity="0.5" stroke="white" />
  <path
    d="M13.531 7.90052C13.9691 7.36852 14.1832 6.68697 14.1278 6C13.4505 6.066 12.8254 6.39266 12.3844 6.91099C12.1627 7.15695 11.9928 7.44504 11.8849 7.75807C11.777 8.0711 11.7332 8.40266 11.7561 8.73298C12.0967 8.7447 12.4353 8.67534 12.7439 8.53061C13.0524 8.38588 13.3222 8.16992 13.531 7.90052"
    fill="#010101" />
  <path
    d="M14.1279 8.85864C13.1541 8.85864 12.3217 9.42409 11.8505 9.42409C11.3793 9.42409 10.6724 8.89006 9.90282 8.90576C9.39196 8.92742 8.896 9.08421 8.46554 9.36015C8.03507 9.63609 7.68552 10.0213 7.45256 10.4764C7.05555 11.4497 6.91635 12.509 7.04842 13.5518C7.18049 14.5946 7.57937 15.5857 8.20648 16.4293C8.69339 17.1675 9.29025 18 10.0756 18C10.8609 18 11.1122 17.5131 12.0075 17.5131C12.9028 17.5131 13.1855 18 13.9709 17.9843C14.7562 17.9686 15.2902 17.2618 15.7929 16.5236C16.1721 15.9673 16.4684 15.3588 16.6724 14.7173C16.2154 14.5326 15.8196 14.2229 15.5305 13.8236C15.2414 13.4243 15.0707 12.9516 15.0379 12.4598C15.0051 11.9679 15.1116 11.4767 15.3451 11.0426C15.5787 10.6085 15.9298 10.249 16.3583 10.0052C16.1128 9.65327 15.7897 9.36253 15.4138 9.15552C15.0379 8.94852 14.6194 8.83081 14.1908 8.81152"
    fill="#010101" />
</svg>