<svg xmlns="http://www.w3.org/2000/svg" width="1em" height="1em" viewBox="0 0 24 24" fill="none">
  <path
    d="M4 2.3V11.7C4 11.8657 4.13431 12 4.3 12H19.7C19.8657 12 20 11.8657 20 11.7V9.3C20 9.13431 19.8657 9 19.7 9H13.4C13.1791 9 13 8.82091 13 8.6V2.3C13 2.13431 12.8657 2 12.7 2H4.3C4.13431 2 4 2.13431 4 2.3Z"
    fill="#90A4AE" />
  <path
    d="M19.2757 8H14.3C14.1343 8 14 7.86569 14 7.7V2.72426C14 2.45699 14.3231 2.32314 14.5121 2.51213L19.4879 7.48787C19.6769 7.67686 19.543 8 19.2757 8Z"
    fill="#90A4AE" />
  <rect x="1" y="13" width="22" height="9" rx="1" fill="#39BDAC" />
  <path
    d="M7.31086 18.6885H8.5004C8.46233 19.1346 8.33545 19.5323 8.11975 19.8817C7.90404 20.2279 7.60111 20.5009 7.21094 20.7005C6.82078 20.9002 6.34655 21 5.78826 21C5.36003 21 4.97462 20.9251 4.63204 20.7754C4.28945 20.6225 3.99603 20.4073 3.75178 20.1297C3.50753 19.8489 3.32038 19.5105 3.19033 19.1143C3.06344 18.7181 3 18.2752 3 17.7854V17.2193C3 16.7295 3.06503 16.2865 3.19508 15.8904C3.32831 15.4942 3.51864 15.1557 3.76606 14.875C4.01348 14.5911 4.31007 14.3743 4.65583 14.2246C5.00476 14.0749 5.39651 14 5.83109 14C6.38303 14 6.84933 14.0998 7.22998 14.2995C7.61063 14.4991 7.90563 14.7752 8.11499 15.1277C8.32752 15.4802 8.45757 15.8841 8.50515 16.3396H7.31562C7.2839 16.0463 7.21412 15.7952 7.10626 15.5862C7.00159 15.3772 6.84615 15.2181 6.63997 15.109C6.43378 14.9967 6.16416 14.9405 5.83109 14.9405C5.55829 14.9405 5.32038 14.9904 5.11737 15.0902C4.91435 15.1901 4.74465 15.3367 4.60825 15.5301C4.47185 15.7235 4.36875 15.9621 4.29897 16.246C4.23236 16.5267 4.19905 16.848 4.19905 17.2099V17.7854C4.19905 18.1286 4.22918 18.4405 4.28945 18.7213C4.35289 18.9989 4.44806 19.2375 4.57494 19.4372C4.705 19.6368 4.86994 19.7912 5.06979 19.9004C5.26963 20.0096 5.50912 20.0642 5.78826 20.0642C6.12768 20.0642 6.40206 20.0111 6.61142 19.9051C6.82395 19.799 6.98414 19.6446 7.09199 19.4418C7.20301 19.236 7.27597 18.9848 7.31086 18.6885Z"
    fill="white" />
  <path
    d="M13.23 19.1517C13.23 19.0114 13.2078 18.8866 13.1634 18.7774C13.1221 18.6682 13.0476 18.5684 12.9397 18.4779C12.8319 18.3875 12.6796 18.3001 12.4829 18.2159C12.2895 18.1286 12.042 18.0397 11.7407 17.9492C11.4108 17.8494 11.1063 17.7386 10.8271 17.617C10.5511 17.4922 10.3101 17.3487 10.1039 17.1865C9.8977 17.0212 9.73751 16.8324 9.62331 16.6203C9.50912 16.4051 9.45202 16.1571 9.45202 15.8763C9.45202 15.5987 9.51071 15.346 9.62807 15.1183C9.74861 14.8906 9.91832 14.6941 10.1372 14.5287C10.3592 14.3603 10.6209 14.2308 10.9223 14.1404C11.2236 14.0468 11.5567 14 11.9215 14C12.4354 14 12.8779 14.0936 13.249 14.2807C13.6233 14.4679 13.9104 14.719 14.1102 15.0341C14.3132 15.3492 14.4148 15.697 14.4148 16.0775H13.23C13.23 15.8529 13.1808 15.6549 13.0825 15.4833C12.9873 15.3086 12.8414 15.1713 12.6447 15.0715C12.4512 14.9717 12.2054 14.9218 11.9072 14.9218C11.6249 14.9218 11.3902 14.9639 11.203 15.0481C11.0159 15.1324 10.8763 15.2462 10.7843 15.3897C10.6923 15.5332 10.6463 15.6954 10.6463 15.8763C10.6463 16.0042 10.6764 16.1212 10.7367 16.2273C10.797 16.3302 10.889 16.4269 11.0127 16.5174C11.1364 16.6047 11.2918 16.6874 11.479 16.7654C11.6661 16.8434 11.8866 16.9182 12.1404 16.99C12.5242 17.1023 12.8588 17.227 13.1443 17.3643C13.4298 17.4984 13.6677 17.6513 13.858 17.8229C14.0484 17.9944 14.1911 18.1894 14.2863 18.4078C14.3814 18.623 14.429 18.8679 14.429 19.1424C14.429 19.4294 14.3703 19.6883 14.253 19.9191C14.1356 20.1468 13.9675 20.3418 13.7486 20.504C13.5329 20.6631 13.2728 20.7863 12.9683 20.8737C12.6669 20.9579 12.3307 21 11.9596 21C11.6265 21 11.2982 20.9563 10.9746 20.869C10.6542 20.7816 10.3624 20.6491 10.0991 20.4713C9.83584 20.2903 9.62649 20.0657 9.47105 19.7975C9.31562 19.5261 9.23791 19.2094 9.23791 18.8476H10.4322C10.4322 19.0691 10.4703 19.2578 10.5464 19.4138C10.6257 19.5697 10.7351 19.6976 10.8747 19.7975C11.0143 19.8942 11.1761 19.9659 11.36 20.0127C11.5472 20.0595 11.747 20.0829 11.9596 20.0829C12.2387 20.0829 12.4718 20.0439 12.659 19.9659C12.8493 19.8879 12.9921 19.7787 13.0872 19.6384C13.1824 19.498 13.23 19.3358 13.23 19.1517Z"
    fill="white" />
  <path
    d="M17.8596 19.6618L19.682 14.0936H21L18.5163 20.9064H17.6265L17.8596 19.6618ZM16.1753 14.0936L17.9833 19.6618L18.2308 20.9064H17.3362L14.862 14.0936H16.1753Z"
    fill="white" />
</svg>