<svg width="1em" height="1em" viewBox="0 0 24 24" fill="none" xmlns="http://www.w3.org/2000/svg">
  <path d="M4 3L5.45535 19.2061L11.9868 21L18.5447 19.1974L20 3H4Z" fill="#E44D26"
    fill-opacity="0.5" />
  <path fill-rule="evenodd" clip-rule="evenodd"
    d="M6.38928 18.4256L5.09383 4H18.9061L17.6107 18.417L11.9867 19.9629L6.38928 18.4256ZM11.9868 21L5.45535 19.2061L4 3H20L18.5447 19.1974L11.9868 21Z"
    fill="#F16529" />
  <path
    d="M12 8.29849H16.8247L17.0099 6.3121H12H11.9912H6.97241L7.51927 12.315H11.9912V12.3194H14.4608L14.2271 14.9008L11.9956 15.4946L9.75962 14.9008L9.6185 13.3126H7.60747L7.88972 16.4322L12 17.5698V17.5584L16.0926 16.4322L16.6439 10.333H12H11.9912H9.35389L9.16866 8.29849H11.9912H12Z"
    fill="white" />
</svg>