<svg xmlns="http://www.w3.org/2000/svg" width="1em" height="1em" viewBox="0 0 24 24" fill="none">
  <path
    d="M19.5 3.5H4.5C3.94772 3.5 3.5 3.94772 3.5 4.5V19.5C3.5 20.0523 3.94772 20.5 4.5 20.5H19.5C20.0523 20.5 20.5 20.0523 20.5 19.5V4.5C20.5 3.94772 20.0523 3.5 19.5 3.5Z"
    fill="#F7DF1E" fill-opacity="0.5" stroke="#F7DF1E" />
  <path
    d="M14.7479 16.5001C15.0702 17.0263 15.4895 17.4131 16.2311 17.4131C16.8541 17.4131 17.2521 17.1017 17.2521 16.6715C17.2521 16.1559 16.8432 15.9733 16.1575 15.6734L15.7816 15.5121C14.6966 15.0499 13.9759 14.4709 13.9759 13.2467C13.9759 12.1191 14.8351 11.2607 16.1778 11.2607C17.1337 11.2607 17.821 11.5934 18.3162 12.4645L17.1454 13.2163C16.8876 12.754 16.6095 12.5719 16.1778 12.5719C15.7374 12.5719 15.4583 12.8513 15.4583 13.2163C15.4583 13.6673 15.7377 13.8499 16.3827 14.1293L16.7586 14.2903C18.0361 14.8381 18.7573 15.3966 18.7573 16.6522C18.7573 18.0059 17.694 18.7474 16.2659 18.7474C14.8696 18.7474 13.9675 18.082 13.5261 17.2099L14.7479 16.5001ZM9.4367 16.6304C9.67289 17.0494 9.88775 17.4037 10.4043 17.4037C10.8983 17.4037 11.2099 17.2104 11.2099 16.4589V11.3466H12.7134V16.4793C12.7134 18.0361 11.8006 18.7446 10.4683 18.7446C9.26451 18.7446 8.56737 18.1217 8.21283 17.3713L9.4367 16.6304Z"
    fill="#21252B" />
</svg>