<svg xmlns="http://www.w3.org/2000/svg" width="1em" height="1em" viewBox="0 0 24 24" fill="none">
  <path
    d="M4 2.3V11.7C4 11.8657 4.13431 12 4.3 12H19.7C19.8657 12 20 11.8657 20 11.7V9.3C20 9.13431 19.8657 9 19.7 9H13.4C13.1791 9 13 8.82091 13 8.6V2.3C13 2.13431 12.8657 2 12.7 2H4.3C4.13431 2 4 2.13431 4 2.3Z"
    fill="#90A4AE" />
  <path
    d="M19.2757 8H14.3C14.1343 8 14 7.86569 14 7.7V2.72426C14 2.45699 14.3231 2.32314 14.5121 2.51213L19.4879 7.48787C19.6769 7.67686 19.543 8 19.2757 8Z"
    fill="#90A4AE" />
  <rect x="1" y="13" width="22" height="9" rx="1" fill="#9777A6" />
  <path
    d="M4.77447 19.1671V15.0802H5.76536V19.1671C5.76536 19.5548 5.68345 19.885 5.51962 20.1578C5.35579 20.4305 5.13251 20.639 4.84978 20.7834C4.56705 20.9278 4.246 21 3.88664 21C3.51936 21 3.19302 20.9372 2.90765 20.8115C2.62492 20.6858 2.40296 20.4933 2.24178 20.234C2.08059 19.9746 2 19.6457 2 19.2473H2.99881C2.99881 19.4773 3.03448 19.6631 3.10583 19.8048C3.17981 19.9439 3.28286 20.0455 3.41498 20.1096C3.54974 20.1711 3.70696 20.2019 3.88664 20.2019C4.0584 20.2019 4.21033 20.1631 4.34245 20.0856C4.47721 20.0053 4.5829 19.889 4.65953 19.7366C4.73616 19.5816 4.77447 19.3917 4.77447 19.1671Z"
    fill="white" />
  <path
    d="M9.94689 19.4158C9.94689 19.2955 9.92839 19.1885 9.8914 19.0949C9.85705 19.0013 9.79495 18.9158 9.70511 18.8382C9.61527 18.7607 9.48844 18.6858 9.32461 18.6136C9.16343 18.5388 8.95733 18.4626 8.7063 18.385C8.4315 18.2995 8.17783 18.2045 7.9453 18.1003C7.71542 17.9933 7.5146 17.8703 7.34285 17.7313C7.17109 17.5896 7.03765 17.4278 6.94253 17.246C6.8474 17.0615 6.79984 16.8489 6.79984 16.6083C6.79984 16.3703 6.84873 16.1537 6.94649 15.9586C7.0469 15.7634 7.18827 15.5949 7.37059 15.4532C7.55556 15.3088 7.77355 15.1979 8.02457 15.1203C8.2756 15.0401 8.55305 15 8.85692 15C9.28498 15 9.65359 15.0802 9.96274 15.2406C10.2745 15.4011 10.5137 15.6163 10.6801 15.8864C10.8493 16.1564 10.9338 16.4545 10.9338 16.7807H9.94689C9.94689 16.5882 9.90593 16.4184 9.82402 16.2714C9.74475 16.1217 9.6232 16.004 9.45937 15.9184C9.29819 15.8329 9.09341 15.7901 8.84503 15.7901C8.60986 15.7901 8.41432 15.8262 8.25842 15.8984C8.10252 15.9706 7.98626 16.0682 7.90963 16.1912C7.833 16.3142 7.79469 16.4532 7.79469 16.6083C7.79469 16.7179 7.81979 16.8182 7.87 16.9091C7.9202 16.9973 7.99683 17.0802 8.09988 17.1578C8.20293 17.2326 8.33241 17.3035 8.48831 17.3703C8.64421 17.4372 8.82785 17.5013 9.03924 17.5628C9.35896 17.6591 9.63773 17.766 9.87555 17.8837C10.1134 17.9987 10.3115 18.1297 10.4701 18.2767C10.6286 18.4238 10.7475 18.5909 10.8268 18.7781C10.9061 18.9626 10.9457 19.1725 10.9457 19.4078C10.9457 19.6537 10.8968 19.8757 10.799 20.0735C10.7013 20.2687 10.5612 20.4358 10.3789 20.5749C10.1992 20.7112 9.98256 20.8168 9.72889 20.8917C9.47787 20.9639 9.19778 21 8.88862 21C8.61118 21 8.33769 20.9626 8.06817 20.8877C7.8013 20.8128 7.5582 20.6992 7.33888 20.5468C7.11957 20.3917 6.94517 20.1992 6.8157 19.9693C6.68622 19.7366 6.62148 19.4652 6.62148 19.1551H7.61633C7.61633 19.3449 7.64804 19.5067 7.71145 19.6404C7.77751 19.7741 7.86868 19.8837 7.98494 19.9693C8.1012 20.0521 8.23596 20.1136 8.38922 20.1537C8.54512 20.1939 8.71159 20.2139 8.88862 20.2139C9.12115 20.2139 9.31537 20.1805 9.47126 20.1136C9.62981 20.0468 9.74871 19.9532 9.82798 19.8329C9.90725 19.7126 9.94689 19.5735 9.94689 19.4158Z"
    fill="white" />
  <path
    d="M16.4273 17.8396V18.1604C16.4273 18.6016 16.3705 18.9973 16.2568 19.3476C16.1432 19.6979 15.9807 19.996 15.7693 20.242C15.5606 20.488 15.3096 20.6765 15.0163 20.8075C14.7229 20.9358 14.3979 21 14.0412 21C13.6871 21 13.3635 20.9358 13.0702 20.8075C12.7795 20.6765 12.5272 20.488 12.3131 20.242C12.0991 19.996 11.9326 19.6979 11.8137 19.3476C11.6975 18.9973 11.6393 18.6016 11.6393 18.1604V17.8396C11.6393 17.3984 11.6975 17.004 11.8137 16.6564C11.93 16.3061 12.0938 16.008 12.3052 15.762C12.5192 15.5134 12.7716 15.3249 13.0622 15.1965C13.3555 15.0655 13.6792 15 14.0333 15C14.39 15 14.715 15.0655 15.0083 15.1965C15.3016 15.3249 15.554 15.5134 15.7654 15.762C15.9767 16.008 16.1393 16.3061 16.2529 16.6564C16.3691 17.004 16.4273 17.3984 16.4273 17.8396ZM15.4324 18.1604V17.8316C15.4324 17.5053 15.4007 17.2179 15.3373 16.9693C15.2765 16.7179 15.1854 16.508 15.0638 16.3396C14.9449 16.1684 14.7983 16.0401 14.6239 15.9545C14.4495 15.8663 14.2526 15.8222 14.0333 15.8222C13.814 15.8222 13.6184 15.8663 13.4467 15.9545C13.2749 16.0401 13.1283 16.1684 13.0067 16.3396C12.8878 16.508 12.7967 16.7179 12.7333 16.9693C12.6698 17.2179 12.6381 17.5053 12.6381 17.8316V18.1604C12.6381 18.4866 12.6698 18.7754 12.7333 19.0267C12.7967 19.2781 12.8892 19.4906 13.0107 19.6644C13.1349 19.8356 13.2829 19.9652 13.4546 20.0535C13.6264 20.139 13.8219 20.1818 14.0412 20.1818C14.2632 20.1818 14.46 20.139 14.6318 20.0535C14.8035 19.9652 14.9489 19.8356 15.0678 19.6644C15.1867 19.4906 15.2765 19.2781 15.3373 19.0267C15.4007 18.7754 15.4324 18.4866 15.4324 18.1604Z"
    fill="white" />
  <path
    d="M22 15.0802V20.9198H21.0052L18.417 16.7366V20.9198H17.4221V15.0802H18.417L21.0131 19.2714V15.0802H22Z"
    fill="white" />
</svg>