<svg width="1em" height="1em" viewBox="0 0 24 24" fill="none" xmlns="http://www.w3.org/2000/svg">
  <path
    d="M9.72319 13.7872C9.28381 14.1995 8.70133 14.4246 8.09894 14.4151C7.81812 14.4344 7.53897 14.3587 7.3063 14.2003C7.07363 14.0419 6.90093 13.8099 6.81592 13.5415C6.71395 13.2376 6.71483 12.9085 6.81844 12.6051C6.92204 12.3017 7.1226 12.0408 7.38918 11.8627C7.90911 11.5562 8.5058 11.4047 9.10898 11.4259C9.64129 11.4259 9.64129 11.4259 9.60035 10.8936C9.60587 10.7928 9.59099 10.6919 9.5566 10.5969C9.52221 10.502 9.46901 10.4149 9.4002 10.341C9.33139 10.2671 9.24837 10.2078 9.15611 10.1668C9.06386 10.1257 8.96426 10.1036 8.86329 10.102C8.35934 10.055 7.85125 10.1202 7.37553 10.2931C7.25269 10.2931 7.1162 10.3886 7.1162 10.1975C7.1162 10.0064 6.87051 9.82898 7.1162 9.70614C7.83235 9.39197 8.62552 9.29698 9.39561 9.43315C9.72143 9.45746 10.0257 9.60515 10.2464 9.8461C10.467 10.0871 10.5875 10.4031 10.5831 10.7298C10.5831 11.8354 10.5831 12.9546 10.5831 14.0602C10.5831 14.2513 10.5831 14.3059 10.3374 14.2923H10.119C9.90063 14.2923 9.76414 14.2923 9.77778 14.0193C9.76588 13.9406 9.74762 13.863 9.72319 13.7872V13.7872ZM9.60035 12.6953V12.2039C9.60035 12.122 9.60035 12.0265 9.4775 12.0265C9.01388 11.984 8.54672 12.0494 8.11259 12.2176C7.96759 12.2937 7.85086 12.4143 7.7796 12.5618C7.70834 12.7092 7.68631 12.8756 7.71676 13.0365C7.71261 13.18 7.75776 13.3206 7.84469 13.4349C7.93162 13.5491 8.05507 13.6301 8.19448 13.6644C8.40667 13.7037 8.62482 13.6973 8.83432 13.6455C9.04382 13.5937 9.23984 13.4978 9.40926 13.3641C9.70954 13.173 9.5594 12.9 9.60035 12.6953V12.6953Z"
    fill="#EE2831" />
  <path
    d="M19.1674 13.7873L18.8261 14.0193C18.6104 14.1826 18.3633 14.2997 18.1002 14.3631C17.8372 14.4265 17.5639 14.4349 17.2974 14.3878C17.0468 14.3786 16.8063 14.2866 16.6136 14.126C16.421 13.9654 16.287 13.7455 16.2328 13.5006C16.1301 13.224 16.1198 12.9215 16.2034 12.6385C16.2871 12.3555 16.4602 12.1073 16.6969 11.931C17.1509 11.6161 17.6869 11.4406 18.2392 11.426H18.403C18.6077 11.426 18.9217 11.5897 19.0036 11.2758C19.0466 11.1668 19.0669 11.0501 19.0632 10.9329C19.0595 10.8157 19.0318 10.7006 18.982 10.5945C18.9321 10.4884 18.8611 10.3936 18.7733 10.3159C18.6854 10.2383 18.5827 10.1794 18.4713 10.1429C18.072 10.0473 17.6558 10.0473 17.2565 10.1429L16.9426 10.2248C16.5467 10.334 16.5604 10.334 16.4648 9.93819C16.4543 9.91049 16.45 9.88084 16.4521 9.8513C16.4542 9.82175 16.4626 9.79301 16.4769 9.76706C16.4912 9.74111 16.5109 9.71856 16.5348 9.70098C16.5586 9.68339 16.586 9.67119 16.615 9.66521C17.2962 9.38173 18.0388 9.27832 18.7715 9.36493C19.1094 9.39888 19.4225 9.55754 19.6496 9.80992C19.8767 10.0623 20.0017 10.3903 20 10.7298C20 11.8081 20 12.8864 20 13.9647C20 14.1694 20 14.224 19.7406 14.2377C19.4813 14.2513 19.1264 14.2513 19.1674 13.7873ZM19.0172 12.6817V12.1903C19.0172 12.1221 19.0172 12.0265 18.9217 12.0265C18.405 11.9577 17.8797 12.0532 17.4203 12.2995C17.3 12.3943 17.2109 12.5231 17.1647 12.6691C17.1184 12.8151 17.1171 12.9717 17.1609 13.1184C17.1743 13.2477 17.2274 13.3696 17.313 13.4674C17.3985 13.5652 17.5123 13.634 17.6387 13.6644C17.8518 13.7019 18.0705 13.6933 18.2801 13.6391C18.4896 13.585 18.6851 13.4865 18.8534 13.3505C19.1401 13.1594 18.9626 12.8728 19.0172 12.6817Z"
    fill="#EE2831" />
  <path
    d="M13.5026 13.173C13.8837 12.2262 14.1672 11.2429 14.3488 10.2385C14.3423 10.1613 14.3423 10.0836 14.3488 10.0064C14.3488 9.81535 14.3488 9.48777 14.499 9.41952C14.783 9.36463 15.0749 9.36463 15.3589 9.41952C15.5363 9.41952 15.4408 9.54237 15.4271 9.62426C15.1957 10.9028 14.8391 12.1554 14.3625 13.3641C13.994 14.2923 13.994 14.2786 12.9976 14.2786C12.9199 14.2905 12.8406 14.2714 12.7768 14.2255C12.713 14.1795 12.6697 14.1104 12.6564 14.0329C12.2196 12.5725 11.7692 11.112 11.2914 9.66521C11.2232 9.43317 11.2914 9.40587 11.4825 9.40587C12.2605 9.40587 12.2742 9.40588 12.4926 10.1293C12.8747 11.112 13.2433 12.0948 13.5026 13.173Z"
    fill="#EE2831" />
  <path
    d="M4 15.821C4 15.6845 4.32758 15.5207 4.49137 15.3705C4.65532 15.2047 4.78163 15.0055 4.86171 14.7864C4.94178 14.5674 4.97375 14.3337 4.95544 14.1012C4.95544 12.1766 4.95544 10.2658 4.95544 8.35488C4.95544 8 5.03734 8 5.36492 8C6.04737 8 6.04737 8 6.04737 8.68246V13.6917C6.06097 13.9509 6.06097 14.2105 6.04737 14.4697C6.01397 14.836 5.88561 15.1874 5.67497 15.4889C5.46433 15.7905 5.1787 16.032 4.84625 16.1895C4.70976 16.1895 4.12284 16.3396 4 15.821Z"
    fill="#EE2831" />
</svg>