<svg xmlns="http://www.w3.org/2000/svg" width="1em" height="1em" viewBox="0 0 24 24" fill="none">
  <g clip-path="url(#clip0_1042_20243)">
    <path
      d="M11.8889 13.6029C12.764 13.6029 13.4734 12.8852 13.4734 12C13.4734 11.1148 12.764 10.3972 11.8889 10.3972C11.0137 10.3972 10.3043 11.1148 10.3043 12C10.3043 12.8852 11.0137 13.6029 11.8889 13.6029Z"
      fill="#61DAFB" />
    <path
      d="M11.8889 15.2839C16.5846 15.2839 20.3913 13.8136 20.3913 12C20.3913 10.1863 16.5846 8.71606 11.8889 8.71606C7.19314 8.71606 3.38647 10.1863 3.38647 12C3.38647 13.8136 7.19314 15.2839 11.8889 15.2839Z"
      stroke="#61DAFB" stroke-width="0.4" />
    <path
      d="M9.07748 13.6419C11.4254 17.7556 14.5874 20.3552 16.1401 19.4484C17.6928 18.5416 17.0482 14.4717 14.7004 10.358C12.3525 6.24438 9.19043 3.64473 7.63771 4.55156C6.08499 5.45838 6.7296 9.52827 9.07748 13.6419Z"
      stroke="#61DAFB" stroke-width="0.4" />
    <path
      d="M9.07744 10.358C6.72956 14.4716 6.08496 18.5415 7.63768 19.4484C9.1904 20.3552 12.3525 17.7555 14.7003 13.6419C17.0482 9.52825 17.6928 5.45836 16.1401 4.55153C14.5874 3.64471 11.4253 6.24435 9.07744 10.358Z"
      stroke="#61DAFB" stroke-width="0.4" />
  </g>
  <defs>
    <clipPath id="clip0_1042_20243">
      <rect width="17.7778" height="16" fill="white" transform="translate(3 4)" />
    </clipPath>
  </defs>
</svg>