<svg xmlns="http://www.w3.org/2000/svg" width="1em" height="1em" viewBox="0 0 24 24" fill="none">
  <path
    d="M4 2.3V11.7C4 11.8657 4.13431 12 4.3 12H19.7C19.8657 12 20 11.8657 20 11.7V9.3C20 9.13431 19.8657 9 19.7 9H13.4C13.1791 9 13 8.82091 13 8.6V2.3C13 2.13431 12.8657 2 12.7 2H4.3C4.13431 2 4 2.13431 4 2.3Z"
    fill="#90A4AE" />
  <path
    d="M19.2757 8H14.3C14.1343 8 14 7.86569 14 7.7V2.72426C14 2.45699 14.3231 2.32314 14.5121 2.51213L19.4879 7.48787C19.6769 7.67686 19.543 8 19.2757 8Z"
    fill="#90A4AE" />
  <rect x="1" y="13" width="22" height="9" rx="1" fill="#66C8E5" />
  <path d="M6.41421 14V21H5.20319V14H6.41421ZM8.63685 14V14.9615H3V14H8.63685Z" fill="white" />
  <path
    d="M10.4996 14L12.0024 16.5529L13.5053 14H14.9108L12.7709 17.4663L14.9643 21H13.5442L12.0024 18.399L10.4607 21H9.03567L11.234 17.4663L9.08917 14H10.4996Z"
    fill="white" />
  <path d="M18.7774 14V21H17.5663V14H18.7774ZM21 14V14.9615H15.3631V14H21Z" fill="white" />
</svg>