<svg xmlns="http://www.w3.org/2000/svg" width="1em" height="1em" viewBox="0 0 24 24" fill="none">
  <path
    d="M4 2.3V11.7C4 11.8657 4.13431 12 4.3 12H19.7C19.8657 12 20 11.8657 20 11.7V9.3C20 9.13431 19.8657 9 19.7 9H13.4C13.1791 9 13 8.82091 13 8.6V2.3C13 2.13431 12.8657 2 12.7 2H4.3C4.13431 2 4 2.13431 4 2.3Z"
    fill="#90A4AE" />
  <path
    d="M19.2757 8H14.3C14.1343 8 14 7.86569 14 7.7V2.72426C14 2.45699 14.3231 2.32314 14.5121 2.51213L19.4879 7.48787C19.6769 7.67686 19.543 8 19.2757 8Z"
    fill="#90A4AE" />
  <rect x="1" y="13" width="22" height="9" rx="1" fill="#0D71BA" />
  <path
    d="M2 20.4612L4.20379 17.4043L3.27962 14.537H4.66588L4.97394 15.7218C4.97394 15.864 5.03318 16.0062 5.06872 16.1602C5.10427 16.3142 5.13981 16.4683 5.17536 16.646L5.5545 16.1602L5.77962 15.7218L6.50237 14.537H7.82939L5.74408 17.4754L6.73934 20.4612H5.35308L5.00948 19.1697C5.00948 19.0157 4.93839 18.8616 4.891 18.7076C4.8436 18.5536 4.81991 18.3877 4.77251 18.21C4.67773 18.3877 4.57109 18.5536 4.47631 18.7076C4.38152 18.8616 4.28673 19.0275 4.1801 19.1815L3.32702 20.4612H2Z"
    fill="#EF5A5E" />
  <path d="M7.07111 19.9043L8.14931 14.537H9.33414L8.44551 18.9564H10.4834L10.3057 19.9043H7.07111Z"
    fill="white" />
  <path d="M11.1943 19.9043L12.2607 14.537H13.4455L12.3673 19.9043H11.1943Z" fill="white" />
  <path
    d="M13.6114 19.9043L14.6896 14.537H17.8649L17.6753 15.4849H15.6137L15.3531 16.8H17.1066L16.917 17.7479H15.1753L14.737 19.9043H13.6114Z"
    fill="white" />
  <path
    d="M17.7583 19.9043L18.8247 14.537H22L21.8223 15.4849H19.7725L19.5119 16.8H21.2654L21.0758 17.7479H19.3104L18.8839 19.9043H17.7583Z"
    fill="white" />
  <path d="M20.3057 20.2242H6.40756V20.473H20.3057V20.2242Z" fill="#EF5A5E" />
</svg>