<svg xmlns="http://www.w3.org/2000/svg" width="1em" height="1em" viewBox="0 0 24 24" fill="none">
  <path
    d="M4 2.3V21.7C4 21.8657 4.13431 22 4.3 22H19.7C19.8657 22 20 21.8657 20 21.7V9.3C20 9.13431 19.8657 9 19.7 9H13.4C13.1791 9 13 8.82091 13 8.6V2.3C13 2.13431 12.8657 2 12.7 2H4.3C4.13431 2 4 2.13431 4 2.3Z"
    fill="#0C9D58" />
  <path
    d="M19.2757 8H14.3C14.1343 8 14 7.86569 14 7.7V2.72426C14 2.45699 14.3231 2.32314 14.5121 2.51213L19.4879 7.48787C19.6769 7.67686 19.543 8 19.2757 8Z"
    fill="#0C9D58" />
  <path d="M16 11V19H8V11H16ZM17 10H7V20H17V10Z" fill="white" />
  <path d="M11 11H10V19H11V11Z" fill="white" />
  <path d="M17 13H7V14H17V13Z" fill="white" />
  <path d="M17 16H7V17H17V16Z" fill="white" />
</svg>