<svg xmlns="http://www.w3.org/2000/svg" width="1em" height="1em" viewBox="0 0 24 24" fill="none">
  <path
    d="M4 2.3V11.7C4 11.8657 4.13431 12 4.3 12H19.7C19.8657 12 20 11.8657 20 11.7V9.3C20 9.13431 19.8657 9 19.7 9H13.4C13.1791 9 13 8.82091 13 8.6V2.3C13 2.13431 12.8657 2 12.7 2H4.3C4.13431 2 4 2.13431 4 2.3Z"
    fill="#90A4AE" />
  <path
    d="M19.2757 8H14.3C14.1343 8 14 7.86569 14 7.7V2.72426C14 2.45699 14.3231 2.32314 14.5121 2.51213L19.4879 7.48787C19.6769 7.67686 19.543 8 19.2757 8Z"
    fill="#90A4AE" />
  <rect x="1" y="13" width="22" height="9" rx="1" fill="#F17857" />
  <path
    d="M4.31889 14L5.67283 16.5529L7.02678 14H8.29309L6.36514 17.4663L8.34129 21H7.06183L5.67283 18.399L4.28384 21H3L4.98053 17.4663L3.0482 14H4.31889Z"
    fill="white" />
  <path
    d="M9.59883 14H10.5803L12.425 19.399L14.2653 14H15.2468L12.8106 21H12.0307L9.59883 14ZM9.1519 14H10.0852L10.2473 18.6731V21H9.1519V14ZM14.7605 14H15.6982V21H14.5983V18.6731L14.7605 14Z"
    fill="white" />
  <path d="M21 20.0433V21H17.797V20.0433H21ZM18.1037 14V21H17.0039V14H18.1037Z" fill="white" />
</svg>