<svg xmlns="http://www.w3.org/2000/svg" viewBox="0 0 408 408"><path fill="#039" d="M0 0h408v408H0V0z"/><path fill="#FC0" d="m203.963 45.231 5.089 15.653h16.542l-13.322 9.68 5.015 15.67-13.323-9.68-13.323 9.68 5.089-15.662-13.322-9.68h16.468l5.087-15.661zM135.963 63.365l5.089 15.653h16.542l-13.323 9.68 5.016 15.67-13.324-9.68-13.323 9.68 5.089-15.662-13.323-9.681h16.468l5.089-15.66zM86.096 113.231l5.089 15.653h16.542l-13.323 9.68 5.016 15.67-13.324-9.68-13.323 9.68 5.089-15.662-13.323-9.68h16.468l5.089-15.661zM67.963 181.23l5.089 15.654h16.542l-13.323 9.682 5.016 15.67-13.324-9.682-13.323 9.682 5.089-15.664-13.323-9.679h16.468l5.089-15.663zM86.096 249.231l5.089 15.654h16.542l-13.323 9.68 5.016 15.67-13.324-9.68-13.323 9.68 5.089-15.662-13.323-9.68h16.468l5.089-15.662zM135.963 299.098l5.089 15.654h16.542l-13.323 9.68 5.016 15.67-13.324-9.679-13.323 9.679 5.089-15.661-13.323-9.681h16.468l5.089-15.662zM271.963 63.365l5.089 15.653h16.542l-13.322 9.68 5.015 15.67-13.323-9.68-13.324 9.68 5.09-15.662-13.322-9.681h16.468l5.087-15.66zM321.83 113.231l5.088 15.653h16.543l-13.323 9.68 5.015 15.67-13.322-9.68-13.324 9.68 5.09-15.662-13.323-9.68h16.468l5.088-15.661zM339.963 181.231l5.089 15.653h16.542l-13.322 9.682 5.015 15.67-13.323-9.682-13.323 9.682 5.089-15.664-13.322-9.679h16.468l5.087-15.662zM321.83 249.231l5.088 15.654h16.543l-13.323 9.68 5.016 15.67-13.323-9.68-13.324 9.68 5.09-15.662-13.323-9.68h16.469l5.087-15.662zM203.963 317.231l5.089 15.654h16.542l-13.322 9.68 5.015 15.67-13.323-9.68-13.323 9.68 5.089-15.662-13.322-9.68h16.468l5.087-15.662zM271.963 299.098l5.089 15.654h16.542l-13.322 9.68 5.016 15.67-13.324-9.68-13.322 9.68 5.088-15.662-13.322-9.68h16.469l5.086-15.662z"/></svg>