<svg xmlns="http://www.w3.org/2000/svg" viewBox="85.5 0 342 342">
	<path fill="#F93" d="M0 0h513v114H0z" />
	<path fill="#fff" d="M0 114h513v114H0z" />
	<path fill="#138808" d="M0 228h513v114H0z" />
	<circle cx="256.5" cy="171" r="34.2" stroke="navy" stroke-width="4" fill="none" />
	<circle cx="256.5" cy="171" r="3.42" fill="navy" />
	<g stroke="navy" stroke-width="2">
		<path d="M256.5 137v68 M256.5 137v68" transform="rotate(15,256.5,171)" />
		<path d="M256.5 137v68" transform="rotate(30,256.5,171)" />
		<path d="M256.5 137v68" transform="rotate(45,256.5,171)" />
		<path d="M256.5 137v68" transform="rotate(60,256.5,171)" />
		<path d="M256.5 137v68" transform="rotate(75,256.5,171)" />
		<path d="M256.5 137v68" transform="rotate(90,256.5,171)" />
		<path d="M256.5 137v68" transform="rotate(105,256.5,171)" />
		<path d="M256.5 137v68" transform="rotate(120,256.5,171)" />
		<path d="M256.5 137v68" transform="rotate(135,256.5,171)" />
		<path d="M256.5 137v68" transform="rotate(150,256.5,171)" />
		<path d="M256.5 137v68" transform="rotate(165,256.5,171)" />
		<path d="M256.5 137v68" transform="rotate(180,256.5,171)" />
		<path d="M256.5 137v68" transform="rotate(195,256.5,171)" />
		<path d="M256.5 137v68" transform="rotate(210,256.5,171)" />
		<path d="M256.5 137v68" transform="rotate(225,256.5,171)" />
		<path d="M256.5 137v68" transform="rotate(240,256.5,171)" />
		<path d="M256.5 137v68" transform="rotate(255,256.5,171)" />
		<path d="M256.5 137v68" transform="rotate(270,256.5,171)" />
		<path d="M256.5 137v68" transform="rotate(285,256.5,171)" />
		<path d="M256.5 137v68" transform="rotate(300,256.5,171)" />
		<path d="M256.5 137v68" transform="rotate(315,256.5,171)" />
		<path d="M256.5 137v68" transform="rotate(330,256.5,171)" />
		<path d="M256.5 137v68" transform="rotate(345,256.5,171)" />
	</g>
</svg>