<?xml version="1.0" standalone="no"?>
<!DOCTYPE svg PUBLIC "-//W3C//DTD SVG 20010904//EN"
 "http://www.w3.org/TR/2001/REC-SVG-20010904/DTD/svg10.dtd">
<svg version="1.0" xmlns="http://www.w3.org/2000/svg"
 width="800.000000pt" height="800.000000pt" viewBox="0 0 800.000000 800.000000"
 preserveAspectRatio="xMidYMid meet">
<metadata>
Created by potrace 1.11, written by Peter Selinger 2001-2013
</metadata>
<g transform="translate(0.000000,800.000000) scale(0.100000,-0.100000)"
fill="#000000" stroke="none">
<path d="M490 7984 c-231 -49 -426 -247 -475 -479 -22 -106 -22 -6904 0 -7010
49 -235 245 -431 480 -480 106 -22 6904 -22 7010 0 235 49 431 245 480 480 22
106 22 6904 0 7010 -49 235 -245 431 -480 480 -103 22 -6915 21 -7015 -1z
m2039 -4919 c151 -48 278 -156 373 -316 21 -35 40 -68 42 -73 3 -6 10 -3 16 7
6 9 38 48 71 87 122 141 282 245 453 294 78 23 106 26 245 26 121 0 175 -5
238 -20 142 -34 287 -115 383 -214 l34 -36 -57 -58 c-31 -32 -57 -61 -57 -66
0 -7 70 -90 139 -165 12 -14 64 -75 115 -135 50 -60 103 -122 117 -139 l26
-30 81 65 c137 112 265 160 432 161 228 2 347 -98 386 -327 13 -74 13 -90 2
-97 -7 -5 -170 -9 -363 -9 -393 -1 -486 -11 -647 -70 -310 -113 -453 -335
-451 -700 1 -148 17 -240 60 -348 65 -164 180 -288 338 -363 l50 -24 -310 -3
c-170 -1 -315 0 -322 3 -10 3 -13 161 -13 758 0 455 -4 776 -10 808 -23 124
-105 231 -198 259 -61 19 -180 24 -252 11 -170 -31 -262 -144 -290 -361 -5
-42 -10 -383 -10 -777 l0 -703 -360 0 -360 0 0 743 c-1 811 -3 851 -57 956
-31 61 -92 114 -151 131 -60 19 -187 24 -254 10 -115 -22 -195 -80 -242 -175
-54 -111 -56 -142 -56 -931 0 -571 -3 -726 -12 -729 -7 -3 -172 -6 -366 -7
l-352 -3 2 1270 3 1270 354 3 c195 1 358 -1 362 -5 4 -5 4 -89 -1 -188 -5 -99
-8 -181 -6 -182 1 -1 29 39 61 89 101 153 236 262 385 309 42 14 90 18 202 18
130 1 156 -2 227 -24z m5119 -20 c2 -24 -104 -222 -506 -945 l-508 -915 463
-3 463 -2 -2 -328 -3 -327 -610 -3 c-335 -1 -620 0 -633 3 l-22 5 2 728 3 727
118 214 c64 117 117 215 117 217 0 2 -66 5 -146 6 l-145 3 -33 86 c-88 234
-276 437 -476 515 -54 21 -72 33 -64 45 3 5 422 8 992 7 l987 -3 3 -30z
m-2068 -1563 c0 -205 -102 -335 -300 -382 -78 -19 -223 -17 -291 3 -122 36
-174 104 -173 223 0 109 44 173 142 209 28 10 111 14 330 14 l292 1 0 -68z m5
-797 c-5 -110 -12 -168 -19 -171 -7 -3 -86 -3 -176 -2 l-165 3 45 24 c103 55
195 143 275 264 21 31 40 55 42 53 3 -3 2 -79 -2 -171z"/>
</g>
</svg>
