<svg xmlns="http://www.w3.org/2000/svg" xmlns:xlink="http://www.w3.org/1999/xlink" version="1.1" id="Layer_1" x="0px" y="0px" width="200px" height="200px" viewBox="0 0 200 200" enable-background="new 0 0 200 200" xml:space="preserve">
  <circle fill="#F2F2F2" cx="100.037" cy="99.907" r="100.549"/>
  <path fill="#CCC" d="M154.971,140.99c-8.206-9.567-17.357-16.927-31.783-20.566c10.953-7.438,18.164-19.993,18.164-34.202  c0-22.781-18.533-41.315-41.314-41.315S58.722,63.441,58.722,86.222c0,14.23,7.231,26.802,18.212,34.236  c-14.345,3.651-23.461,10.995-31.641,20.532c-2.337,2.726-2.023,6.829,0.702,9.165c2.724,2.338,6.829,2.023,9.165-0.701  c10.075-11.746,20.648-18.547,44.877-18.547h0.189c24.229,0,34.802,6.801,44.877,18.547c1.285,1.498,3.105,2.268,4.937,2.268  c1.498,0,3.003-0.514,4.229-1.566C156.995,147.819,157.308,143.716,154.971,140.99z M100.038,57.907  c15.612,0,28.314,12.702,28.314,28.315s-12.702,28.315-28.314,28.315c-15.613,0-28.315-12.702-28.315-28.315  S84.424,57.907,100.038,57.907z"/>
</svg>